<?xml version="1.0" encoding="utf-8"?>
<!-- Generator: Adobe Illustrator 27.2.0, SVG Export Plug-In . SVG Version: 6.00 Build 0)  -->
<svg version="1.1" id="Layer_1" xmlns="http://www.w3.org/2000/svg" xmlns:xlink="http://www.w3.org/1999/xlink" x="0px" y="0px"
	 viewBox="0 0 700 200" style="enable-background:new 0 0 700 200;" xml:space="preserve">
<style type="text/css">
	.st0{fill:#224352;}
	.st1{fill:#FBC649;}
	.st2{fill:#2AB29D;}
	.st3{fill:#E15A43;}
</style>
<g>
	<g>
		<path d="M224.6,133c-12,0-21.3-6.6-21.3-17.2h10.5c0.4,4.9,3.9,8.9,10.7,8.9c6.9,0,10.8-3.7,10.8-8.8c0-14.5-31.9-5.1-31.9-27.2
			c0-10.5,8.4-17.1,20.7-17.1c11.5,0,19.6,6.1,20.5,16.3h-10.9c-0.3-4.1-3.9-7.8-10.1-8c-5.7-0.2-10.1,2.6-10.1,8.4
			c0,13.6,31.8,5.1,31.8,27.1C245.3,124.3,238,133,224.6,133z"/>
		<path d="M258.6,92.8h-5.6v-8h5.6V72.9h9.9v11.8h11.6v8h-11.6v26.4c0,3.5,1.4,5,5.5,5h6.1v8.2h-7.8c-8.5,0-13.7-3.5-13.7-13.2V92.8
			z"/>
		<path d="M308.3,84c8,0,13.6,3.8,16.5,7.7v-6.9h9.9v47.6h-9.9v-7.1c-3,4.1-8.7,7.9-16.7,7.9c-12.4,0-22.3-10.1-22.3-24.8
			S295.8,84,308.3,84z M310.4,92.5c-7.3,0-14.4,5.5-14.4,15.8c0,10.3,7.1,16.3,14.4,16.3c7.4,0,14.4-5.8,14.4-16.1
			C324.9,98.3,317.9,92.5,310.4,92.5z"/>
		<path d="M357.6,132.4h-9.9V84.7h9.9v6.9c2.8-4.8,7.5-7.7,14.3-7.7v10.2h-2.5c-7.3,0-11.8,3-11.8,13.1V132.4z"/>
		<path d="M382.5,92.8h-5.6v-8h5.6V72.9h9.9v11.8H404v8h-11.6v26.4c0,3.5,1.4,5,5.5,5h6.1v8.2h-7.8c-8.5,0-13.7-3.5-13.7-13.2V92.8z
			"/>
		<path d="M456.3,132.4h-9.9v-5.7c-3.1,4.1-8.5,6.4-14.1,6.4c-11.2,0-19.6-7-19.6-20.3v-28h9.8v26.5c0,8.7,4.8,13.2,11.9,13.2
			c7.3,0,12-4.5,12-13.2V84.7h9.9V132.4z"/>
		<path d="M495.7,84c12.5,0,22.4,9.7,22.4,24.4s-9.9,24.8-22.4,24.8c-7.9,0-13.5-4-16.6-7.7V155h-9.9V84.7h9.9v7
			C482.1,87.8,487.9,84,495.7,84z M493.5,92.5c-7.3,0-14.4,5.8-14.4,16c0,10.3,7.1,16.1,14.4,16.1c7.4,0,14.5-6,14.5-16.3
			C508,98.1,500.9,92.5,493.5,92.5z"/>
		<path d="M527.8,72.3h35.4v8h-25.5v17.7h19.9v8h-19.9v26.3h-9.9V72.3z"/>
		<path d="M572.3,68.4h9.9v64h-9.9V68.4z"/>
		<path d="M638.3,132.4h-9.9v-5.7c-3.1,4.1-8.5,6.4-14.1,6.4c-11.2,0-19.6-7-19.6-20.3v-28h9.8v26.5c0,8.7,4.8,13.2,11.9,13.2
			c7.3,0,12-4.5,12-13.2V84.7h9.9V132.4z"/>
		<path d="M665.6,116.2l-9.7,16.2h-10.3l15.4-23.4l-15.4-24.2h11.2l10.3,16.2l9.7-16.2h10.3l-15.4,23.5l15.4,24.1h-11.2L665.6,116.2
			z"/>
	</g>
	<g>
		<polygon class="st0" points="68.6,100 99.3,100 70.9,44.3 12.9,44.3 28.3,75.6 56.3,75.6 		"/>
		<polygon class="st1" points="129.9,100 99.3,100 127.7,44.3 185.6,44.3 170.3,75.6 142.2,75.6 		"/>
		<polygon class="st2" points="68.6,100 99.3,100 70.9,155.7 12.9,155.7 28.3,124.4 56.3,124.4 		"/>
		<polygon class="st3" points="129.9,100 99.3,100 127.7,155.7 185.6,155.7 170.3,124.4 142.2,124.4 		"/>
	</g>
</g>
</svg>
