<svg xmlns="http://www.w3.org/2000/svg" width="300" height="200" viewBox="0 0 300 200" fill="none">
  <g clip-path="url(#clip0_1_2)">
    <path d="M150 200C232.843 200 300 155.228 300 100C300 44.7715 232.843 0 150 0C67.1573 0 0 44.7715 0 100C0 155.228 67.1573 200 150 200Z" fill="#F8FAFF"/>
    <path d="M220 60H80C74.4772 60 70 64.4772 70 70V130C70 135.523 74.4772 140 80 140H220C225.523 140 230 135.523 230 130V70C230 64.4772 225.523 60 220 60Z" fill="white" stroke="#F05126" stroke-width="2"/>
    <path d="M230 70L150 105L70 70" stroke="#F05126" stroke-width="2" stroke-linecap="round" stroke-linejoin="round"/>
    <path d="M150 105L70 130" stroke="#F05126" stroke-width="2" stroke-linecap="round" stroke-linejoin="round"/>
    <path d="M150 105L230 130" stroke="#F05126" stroke-width="2" stroke-linecap="round" stroke-linejoin="round"/>
    <path d="M110 90H90V110H110V90Z" fill="#2196F3" fill-opacity="0.2"/>
    <path d="M210 90H190V110H210V90Z" fill="#2196F3" fill-opacity="0.2"/>
    <path d="M160 115H140V135H160V115Z" fill="#2196F3" fill-opacity="0.2"/>
    <path d="M245 85C245 82.2386 247.239 80 250 80H270C272.761 80 275 82.2386 275 85V95C275 97.7614 272.761 100 270 100H250C247.239 100 245 97.7614 245 95V85Z" fill="#F05126" fill-opacity="0.2"/>
    <path d="M245 110C245 107.239 247.239 105 250 105H270C272.761 105 275 107.239 275 110V120C275 122.761 272.761 125 270 125H250C247.239 125 245 122.761 245 120V110Z" fill="#F05126" fill-opacity="0.2"/>
    <path d="M25 85C25 82.2386 27.2386 80 30 80H50C52.7614 80 55 82.2386 55 85V95C55 97.7614 52.7614 100 50 100H30C27.2386 100 25 97.7614 25 95V85Z" fill="#F05126" fill-opacity="0.2"/>
    <path d="M25 110C25 107.239 27.2386 105 30 105H50C52.7614 105 55 107.239 55 110V120C55 122.761 52.7614 125 50 125H30C27.2386 125 25 122.761 25 120V110Z" fill="#F05126" fill-opacity="0.2"/>
    <path d="M150 160C155.523 160 160 155.523 160 150C160 144.477 155.523 140 150 140C144.477 140 140 144.477 140 150C140 155.523 144.477 160 150 160Z" fill="#F05126" fill-opacity="0.3"/>
    <path d="M150 180C166.569 180 180 166.569 180 150C180 133.431 166.569 120 150 120C133.431 120 120 133.431 120 150C120 166.569 133.431 180 150 180Z" stroke="#F05126" stroke-width="2" stroke-dasharray="4 4"/>
    <path d="M150 45C152.761 45 155 42.7614 155 40C155 37.2386 152.761 35 150 35C147.239 35 145 37.2386 145 40C145 42.7614 147.239 45 150 45Z" fill="#2196F3"/>
    <path d="M190 55C192.761 55 195 52.7614 195 50C195 47.2386 192.761 45 190 45C187.239 45 185 47.2386 185 50C185 52.7614 187.239 55 190 55Z" fill="#F05126"/>
    <path d="M110 55C112.761 55 115 52.7614 115 50C115 47.2386 112.761 45 110 45C107.239 45 105 47.2386 105 50C105 52.7614 107.239 55 110 55Z" fill="#F05126"/>
    <path d="M230 170C232.761 170 235 167.761 235 165C235 162.239 232.761 160 230 160C227.239 160 225 162.239 225 165C225 167.761 227.239 170 230 170Z" fill="#2196F3"/>
    <path d="M70 170C72.7614 170 75 167.761 75 165C75 162.239 72.7614 160 70 160C67.2386 160 65 162.239 65 165C65 167.761 67.2386 170 70 170Z" fill="#2196F3"/>
  </g>
  <defs>
    <clipPath id="clip0_1_2">
      <rect width="300" height="200" fill="white"/>
    </clipPath>
  </defs>
</svg>
